<?xml version="1.0" encoding="UTF-8"?>
<svg xmlns="http://www.w3.org/2000/svg" xmlns:xlink="http://www.w3.org/1999/xlink" viewBox="0 0 60 60" width="60px" height="60px">
<g id="surface92135910">
<rect x="0" y="0" width="60" height="60" style="fill:rgb(0%,0%,0%);fill-opacity:1;stroke:none;"/>
<path style=" stroke:none;fill-rule:nonzero;fill:rgb(100%,100%,100%);fill-opacity:1;" d="M 30 6 C 16.746094 6 6 16.746094 6 30 C 6 43.253906 16.746094 54 30 54 C 43.253906 54 54 43.253906 54 30 C 54 16.746094 43.253906 6 30 6 Z M 32 42 L 28 42 L 28 28 L 32 28 Z M 30 23 C 28.34375 23 27 21.65625 27 20 C 27 18.34375 28.34375 17 30 17 C 31.65625 17 33 18.34375 33 20 C 33 21.65625 31.65625 23 30 23 Z M 30 23 "/>
</g>
</svg>
